<svg aria-hidden="true" style="width:0;height:0;position:absolute;overflow:hidden" xmlns="http://www.w3.org/2000/svg"><defs><symbol id="icon-Alert_circle" viewBox="0 0 32 32"><path fill="none" stroke="#fcf7e6" style="stroke:var(--color1,#fcf7e6)" stroke-linejoin="round" stroke-linecap="round" stroke-width="2.667" d="M16 29.333c7.364 0 13.333-5.97 13.333-13.333S23.363 2.667 16 2.667C8.636 2.667 2.667 8.637 2.667 16S8.637 29.333 16 29.333zM16 10.667V16M16 21.333h.013"/></symbol><symbol id="icon-Chevron_down" viewBox="0 0 32 32"><path fill="none" stroke="#fcf7e6" style="stroke:var(--color1,#fcf7e6)" stroke-linejoin="round" stroke-linecap="round" stroke-width="2.667" d="m8 12 8 8 8-8"/></symbol><symbol id="icon-Delete_bin" viewBox="0 0 32 32"><path fill="#fcf7e6" style="fill:var(--color1,#fcf7e6)" d="M9.333 5.333V2.666h13.333v2.667h6.667V8h-2.667v20a1.334 1.334 0 0 1-1.334 1.334H6.665A1.334 1.334 0 0 1 5.331 28V8H2.664V5.333h6.667zM8 8v18.667h16V8H8zm4 4h2.667v10.667H12V12zm5.333 0H20v10.667h-2.667V12z"/></symbol><symbol id="icon-Close_line" viewBox="0 0 32 32"><path fill="#fcf7e6" style="fill:var(--color1,#fcf7e6)" d="m16 14.115 6.6-6.6L24.485 9.4l-6.6 6.6 6.6 6.6-1.885 1.885-6.6-6.6-6.6 6.6L7.515 22.6l6.6-6.6-6.6-6.6L9.4 7.515l6.6 6.6z"/></symbol><symbol id="icon-Cart" viewBox="0 0 30 32"><path d="M4.267 3.2c0-.589.478-1.067 1.067-1.067h2.133c.521 0 .966.377 1.052.891l.385 2.309h15.63a1.066 1.066 0 0 1 1.012 1.404l-3.2 9.6a1.066 1.066 0 0 1-1.012.729H9.601c-.521 0-.966-.377-1.052-.891L6.564 4.266h-1.23a1.067 1.067 0 0 1-1.067-1.067zm4.992 4.267 1.244 7.467h10.061l2.489-7.467H9.259zM8.533 21.333a2.133 2.133 0 1 1 4.266 0 2.133 2.133 0 0 1-4.266 0zM18.133 21.333a2.133 2.133 0 1 1 4.266 0 2.133 2.133 0 0 1-4.266 0z"/></symbol><symbol id="icon-Logomark" viewBox="0 0 32 32"><path d="M16 32C7.178 32 0 24.822 0 16S7.178 0 16 0s16 7.178 16 16-7.178 16-16 16zm0-29.69C8.452 2.31 2.31 8.451 2.31 16S8.451 29.69 16 29.69c7.548 0 13.69-6.141 13.69-13.69S23.549 2.31 16 2.31z"/><path d="m12.394 10.667 3.191 10.417h.118l3.191-10.417h3.86l-4.815 14.222h-4.592L8.532 10.667h3.86z"/></symbol><symbol id="icon-Logo" viewBox="0 0 60 32"><path d="m4.692.296 2.41 7.891h.089L9.601.296h2.915L8.881 11.07H5.414L1.779.296h2.915zM16.478 11.223c-.849 0-1.578-.174-2.189-.521a3.593 3.593 0 0 1-1.405-1.463c-.326-.628-.489-1.356-.489-2.183 0-.831.163-1.559.489-2.183a3.557 3.557 0 0 1 1.405-1.463c.61-.351 1.34-.526 2.189-.526s1.577.175 2.183.526c.61.347 1.079.835 1.405 1.463.33.624.495 1.352.495 2.183 0 .828-.165 1.555-.495 2.183a3.55 3.55 0 0 1-1.405 1.463c-.607.347-1.335.521-2.183.521zm.016-1.941c.309 0 .57-.095.784-.284s.377-.452.489-.789c.116-.337.174-.726.174-1.168 0-.449-.058-.842-.174-1.178-.112-.337-.275-.6-.489-.789s-.475-.284-.784-.284c-.319 0-.589.095-.81.284-.217.189-.384.452-.5.789a3.736 3.736 0 0 0-.168 1.178c0 .442.056.831.168 1.168.116.337.282.6.5.789.221.189.491.284.81.284zM25.651 11.223c-.849 0-1.578-.174-2.189-.521a3.593 3.593 0 0 1-1.405-1.463c-.326-.628-.489-1.356-.489-2.183 0-.831.163-1.559.489-2.183a3.557 3.557 0 0 1 1.405-1.463c.61-.351 1.34-.526 2.189-.526s1.577.175 2.183.526c.61.347 1.078.835 1.405 1.463.33.624.494 1.352.494 2.183 0 .828-.165 1.555-.494 2.183a3.55 3.55 0 0 1-1.405 1.463c-.607.347-1.335.521-2.183.521zm.015-1.941c.309 0 .57-.095.784-.284s.377-.452.489-.789c.116-.337.174-.726.174-1.168 0-.449-.058-.842-.174-1.178-.112-.337-.275-.6-.489-.789s-.475-.284-.784-.284c-.319 0-.589.095-.81.284-.217.189-.384.452-.5.789a3.736 3.736 0 0 0-.168 1.178c0 .442.056.831.168 1.168.116.337.282.6.5.789.221.189.491.284.81.284zM35.033 11.071H31.05V.297h3.977c1.098 0 2.043.216 2.836.647a4.42 4.42 0 0 1 1.841 1.852c.431.803.647 1.764.647 2.883 0 1.122-.216 2.087-.647 2.894a4.42 4.42 0 0 1-1.836 1.857c-.796.428-1.741.642-2.836.642zm-1.378-2.22h1.279c.603 0 1.113-.102 1.531-.305.421-.207.738-.542.952-1.005.217-.466.326-1.087.326-1.862s-.109-1.392-.326-1.852c-.217-.463-.538-.796-.963-1-.421-.207-.94-.31-1.557-.31h-1.241v6.334zM45.645 11.223c-.849 0-1.578-.174-2.188-.521a3.593 3.593 0 0 1-1.405-1.463c-.326-.628-.489-1.356-.489-2.183 0-.831.163-1.559.489-2.183a3.557 3.557 0 0 1 1.405-1.463c.61-.351 1.34-.526 2.188-.526s1.577.175 2.183.526c.61.347 1.079.835 1.405 1.463.329.624.495 1.352.495 2.183 0 .828-.165 1.555-.495 2.183a3.55 3.55 0 0 1-1.405 1.463c-.607.347-1.335.521-2.183.521zm.016-1.941c.308 0 .57-.095.784-.284s.377-.452.489-.789c.116-.337.174-.726.174-1.168 0-.449-.058-.842-.174-1.178-.112-.337-.275-.6-.489-.789s-.475-.284-.784-.284c-.319 0-.589.095-.81.284-.217.189-.384.452-.5.789a3.736 3.736 0 0 0-.168 1.178c0 .442.056.831.168 1.168.116.337.282.6.5.789.221.189.491.284.81.284zM54.817 11.223c-.849 0-1.578-.174-2.188-.521a3.593 3.593 0 0 1-1.405-1.463c-.326-.628-.489-1.356-.489-2.183 0-.831.163-1.559.489-2.183a3.557 3.557 0 0 1 1.405-1.463c.61-.351 1.34-.526 2.188-.526s1.577.175 2.183.526c.61.347 1.079.835 1.405 1.463.329.624.495 1.352.495 2.183 0 .828-.165 1.555-.495 2.183A3.55 3.55 0 0 1 57 10.702c-.607.347-1.335.521-2.183.521zm.016-1.941c.308 0 .57-.095.784-.284s.377-.452.489-.789c.116-.337.174-.726.174-1.168 0-.449-.058-.842-.174-1.178-.112-.337-.275-.6-.489-.789s-.475-.284-.784-.284c-.319 0-.589.095-.81.284-.217.189-.384.452-.5.789a3.736 3.736 0 0 0-.168 1.178c0 .442.056.831.168 1.168.116.337.282.6.5.789.221.189.491.284.81.284zM1.894 20.485V18.37h9.107v2.115H7.734v8.66H5.167v-8.66H1.895zM14.877 29.297c-.845 0-1.575-.167-2.189-.5a3.46 3.46 0 0 1-1.41-1.436c-.326-.624-.489-1.366-.489-2.225 0-.835.165-1.564.495-2.189a3.575 3.575 0 0 1 1.394-1.463c.6-.351 1.306-.526 2.12-.526.575 0 1.101.089 1.578.268s.889.444 1.236.794c.347.351.617.784.81 1.299.193.512.289 1.1.289 1.762v.642h-7.023v-1.494h4.63c-.003-.274-.068-.517-.195-.731s-.3-.381-.521-.5a1.5 1.5 0 0 0-.752-.184 1.53 1.53 0 0 0-.773.195c-.228.126-.409.3-.542.521a1.466 1.466 0 0 0-.21.742v1.52c0 .33.065.619.195.868.13.245.314.437.552.573s.523.205.852.205c.228 0 .435-.032.621-.095s.345-.156.479-.279c.133-.123.233-.274.3-.452l2.362.068c-.098.53-.314.991-.647 1.384-.33.389-.763.693-1.299.91-.537.214-1.157.321-1.862.321zM27.082 23.531l-2.362.063a.884.884 0 0 0-.2-.447 1.075 1.075 0 0 0-.426-.31 1.456 1.456 0 0 0-.6-.116c-.298 0-.552.06-.763.179-.207.119-.309.281-.305.484a.518.518 0 0 0 .189.41c.133.116.37.209.71.279l1.557.295c.807.154 1.406.41 1.799.768.396.358.596.831.6 1.42a2.275 2.275 0 0 1-.495 1.447c-.323.41-.765.73-1.326.957-.561.224-1.203.337-1.925.337-1.154 0-2.064-.237-2.73-.71-.663-.477-1.042-1.115-1.136-1.915l2.541-.063c.056.295.202.519.437.673s.535.232.9.232c.33 0 .598-.061.805-.184s.312-.286.316-.489a.518.518 0 0 0-.242-.437c-.158-.112-.405-.2-.742-.263l-1.41-.268c-.81-.147-1.413-.419-1.81-.815-.396-.4-.593-.908-.589-1.526-.003-.54.14-1.001.431-1.384.291-.386.705-.68 1.242-.884s1.17-.305 1.899-.305c1.094 0 1.957.23 2.588.689.631.456.98 1.084 1.047 1.883zM33.109 21.064v1.894h-5.098v-1.894h5.098zm-4.03-1.936h2.573v7.476c0 .158.024.286.073.384a.46.46 0 0 0 .226.205.954.954 0 0 0 .352.058c.098 0 .202-.009.311-.026.112-.021.196-.039.252-.053l.389 1.857c-.123.035-.296.079-.521.132a4.291 4.291 0 0 1-.794.1c-.603.028-1.121-.042-1.552-.21a2.01 2.01 0 0 1-.984-.8c-.224-.361-.333-.815-.326-1.363v-7.76z"/><path fill="none" stroke="#000" style="stroke:var(--color2,#000)" stroke-width=".593" d="m4.692.296 2.41 7.891h.089L9.601.296h2.915L8.881 11.07H5.414L1.779.296h2.915zM16.478 11.223c-.849 0-1.578-.174-2.189-.521a3.593 3.593 0 0 1-1.405-1.463c-.326-.628-.489-1.356-.489-2.183 0-.831.163-1.559.489-2.183a3.557 3.557 0 0 1 1.405-1.463c.61-.351 1.34-.526 2.189-.526s1.577.175 2.183.526c.61.347 1.079.835 1.405 1.463.33.624.495 1.352.495 2.183 0 .828-.165 1.555-.495 2.183a3.55 3.55 0 0 1-1.405 1.463c-.607.347-1.335.521-2.183.521zm.016-1.941c.309 0 .57-.095.784-.284s.377-.452.489-.789c.116-.337.174-.726.174-1.168 0-.449-.058-.842-.174-1.178-.112-.337-.275-.6-.489-.789s-.475-.284-.784-.284c-.319 0-.589.095-.81.284-.217.189-.384.452-.5.789a3.736 3.736 0 0 0-.168 1.178c0 .442.056.831.168 1.168.116.337.282.6.5.789.221.189.491.284.81.284zM25.651 11.223c-.849 0-1.578-.174-2.189-.521a3.593 3.593 0 0 1-1.405-1.463c-.326-.628-.489-1.356-.489-2.183 0-.831.163-1.559.489-2.183a3.557 3.557 0 0 1 1.405-1.463c.61-.351 1.34-.526 2.189-.526s1.577.175 2.183.526c.61.347 1.078.835 1.405 1.463.33.624.494 1.352.494 2.183 0 .828-.165 1.555-.494 2.183a3.55 3.55 0 0 1-1.405 1.463c-.607.347-1.335.521-2.183.521zm.015-1.941c.309 0 .57-.095.784-.284s.377-.452.489-.789c.116-.337.174-.726.174-1.168 0-.449-.058-.842-.174-1.178-.112-.337-.275-.6-.489-.789s-.475-.284-.784-.284c-.319 0-.589.095-.81.284-.217.189-.384.452-.5.789a3.736 3.736 0 0 0-.168 1.178c0 .442.056.831.168 1.168.116.337.282.6.5.789.221.189.491.284.81.284zM35.033 11.071H31.05V.297h3.977c1.098 0 2.043.216 2.836.647a4.42 4.42 0 0 1 1.841 1.852c.431.803.647 1.764.647 2.883 0 1.122-.216 2.087-.647 2.894a4.42 4.42 0 0 1-1.836 1.857c-.796.428-1.741.642-2.836.642zm-1.378-2.22h1.279c.603 0 1.113-.102 1.531-.305.421-.207.738-.542.952-1.005.217-.466.326-1.087.326-1.862s-.109-1.392-.326-1.852c-.217-.463-.538-.796-.963-1-.421-.207-.94-.31-1.557-.31h-1.241v6.334zM45.645 11.223c-.849 0-1.578-.174-2.188-.521a3.593 3.593 0 0 1-1.405-1.463c-.326-.628-.489-1.356-.489-2.183 0-.831.163-1.559.489-2.183a3.557 3.557 0 0 1 1.405-1.463c.61-.351 1.34-.526 2.188-.526s1.577.175 2.183.526c.61.347 1.079.835 1.405 1.463.329.624.495 1.352.495 2.183 0 .828-.165 1.555-.495 2.183a3.55 3.55 0 0 1-1.405 1.463c-.607.347-1.335.521-2.183.521zm.016-1.941c.308 0 .57-.095.784-.284s.377-.452.489-.789c.116-.337.174-.726.174-1.168 0-.449-.058-.842-.174-1.178-.112-.337-.275-.6-.489-.789s-.475-.284-.784-.284c-.319 0-.589.095-.81.284-.217.189-.384.452-.5.789a3.736 3.736 0 0 0-.168 1.178c0 .442.056.831.168 1.168.116.337.282.6.5.789.221.189.491.284.81.284zM54.817 11.223c-.849 0-1.578-.174-2.188-.521a3.593 3.593 0 0 1-1.405-1.463c-.326-.628-.489-1.356-.489-2.183 0-.831.163-1.559.489-2.183a3.557 3.557 0 0 1 1.405-1.463c.61-.351 1.34-.526 2.188-.526s1.577.175 2.183.526c.61.347 1.079.835 1.405 1.463.329.624.495 1.352.495 2.183 0 .828-.165 1.555-.495 2.183A3.55 3.55 0 0 1 57 10.702c-.607.347-1.335.521-2.183.521zm.016-1.941c.308 0 .57-.095.784-.284s.377-.452.489-.789c.116-.337.174-.726.174-1.168 0-.449-.058-.842-.174-1.178-.112-.337-.275-.6-.489-.789s-.475-.284-.784-.284c-.319 0-.589.095-.81.284-.217.189-.384.452-.5.789a3.736 3.736 0 0 0-.168 1.178c0 .442.056.831.168 1.168.116.337.282.6.5.789.221.189.491.284.81.284zM1.894 20.485V18.37h9.107v2.115H7.734v8.66H5.167v-8.66H1.895zM14.877 29.297c-.845 0-1.575-.167-2.189-.5a3.46 3.46 0 0 1-1.41-1.436c-.326-.624-.489-1.366-.489-2.225 0-.835.165-1.564.495-2.189a3.575 3.575 0 0 1 1.394-1.463c.6-.351 1.306-.526 2.12-.526.575 0 1.101.089 1.578.268s.889.444 1.236.794c.347.351.617.784.81 1.299.193.512.289 1.1.289 1.762v.642h-7.023v-1.494h4.63c-.003-.274-.068-.517-.195-.731s-.3-.381-.521-.5a1.5 1.5 0 0 0-.752-.184 1.53 1.53 0 0 0-.773.195c-.228.126-.409.3-.542.521a1.466 1.466 0 0 0-.21.742v1.52c0 .33.065.619.195.868.13.245.314.437.552.573s.523.205.852.205c.228 0 .435-.032.621-.095s.345-.156.479-.279c.133-.123.233-.274.3-.452l2.362.068c-.098.53-.314.991-.647 1.384-.33.389-.763.693-1.299.91-.537.214-1.157.321-1.862.321zM27.082 23.531l-2.362.063a.884.884 0 0 0-.2-.447 1.075 1.075 0 0 0-.426-.31 1.456 1.456 0 0 0-.6-.116c-.298 0-.552.06-.763.179-.207.119-.309.281-.305.484a.518.518 0 0 0 .189.41c.133.116.37.209.71.279l1.557.295c.807.154 1.406.41 1.799.768.396.358.596.831.6 1.42a2.275 2.275 0 0 1-.495 1.447c-.323.41-.765.73-1.326.957-.561.224-1.203.337-1.925.337-1.154 0-2.064-.237-2.73-.71-.663-.477-1.042-1.115-1.136-1.915l2.541-.063c.056.295.202.519.437.673s.535.232.9.232c.33 0 .598-.061.805-.184s.312-.286.316-.489a.518.518 0 0 0-.242-.437c-.158-.112-.405-.2-.742-.263l-1.41-.268c-.81-.147-1.413-.419-1.81-.815-.396-.4-.593-.908-.589-1.526-.003-.54.14-1.001.431-1.384.291-.386.705-.68 1.242-.884s1.17-.305 1.899-.305c1.094 0 1.957.23 2.588.689.631.456.98 1.084 1.047 1.883zM33.109 21.064v1.894h-5.098v-1.894h5.098zm-4.03-1.936h2.573v7.476c0 .158.024.286.073.384a.46.46 0 0 0 .226.205.954.954 0 0 0 .352.058c.098 0 .202-.009.311-.026.112-.021.196-.039.252-.053l.389 1.857c-.123.035-.296.079-.521.132a4.291 4.291 0 0 1-.794.1c-.603.028-1.121-.042-1.552-.21a2.01 2.01 0 0 1-.984-.8c-.224-.361-.333-.815-.326-1.363v-7.76z"/></symbol></defs></svg>