<svg aria-hidden="true" style="position: absolute; width: 0; height: 0; overflow: hidden;" version="1.1" xmlns="http://www.w3.org/2000/svg" xmlns:xlink="http://www.w3.org/1999/xlink">
<defs>
<symbol id="icon-Alert_circle" viewBox="0 0 32 32">
<path fill="none" stroke="#fcf7e6" style="stroke: var(--color1, #fcf7e6)" stroke-linejoin="round" stroke-linecap="round" stroke-miterlimit="4" stroke-width="2.6667" d="M16 29.333c7.364 0 13.333-5.97 13.333-13.333s-5.97-13.333-13.333-13.333c-7.364 0-13.333 5.97-13.333 13.333s5.97 13.333 13.333 13.333z"></path>
<path fill="none" stroke="#fcf7e6" style="stroke: var(--color1, #fcf7e6)" stroke-linejoin="round" stroke-linecap="round" stroke-miterlimit="4" stroke-width="2.6667" d="M16 10.667v5.333"></path>
<path fill="none" stroke="#fcf7e6" style="stroke: var(--color1, #fcf7e6)" stroke-linejoin="round" stroke-linecap="round" stroke-miterlimit="4" stroke-width="2.6667" d="M16 21.333h0.013"></path>
</symbol>
<symbol id="icon-Chevron_down" viewBox="0 0 32 32">
<path fill="none" stroke="#fcf7e6" style="stroke: var(--color1, #fcf7e6)" stroke-linejoin="round" stroke-linecap="round" stroke-miterlimit="4" stroke-width="2.6667" d="M8 12l8 8 8-8"></path>
</symbol>
<symbol id="icon-Delete_bin" viewBox="0 0 32 32">
<path fill="#fcf7e6" style="fill: var(--color1, #fcf7e6)" d="M9.333 5.333v-2.667h13.333v2.667h6.667v2.667h-2.667v20c0 0.354-0.141 0.693-0.391 0.943s-0.589 0.391-0.943 0.391h-18.667c-0.354 0-0.693-0.141-0.943-0.391s-0.391-0.589-0.391-0.943v-20h-2.667v-2.667h6.667zM8 8v18.667h16v-18.667h-16zM12 12h2.667v10.667h-2.667v-10.667zM17.333 12h2.667v10.667h-2.667v-10.667z"></path>
</symbol>
<symbol id="icon-Close_line" viewBox="0 0 32 32">
<path fill="#fcf7e6" style="fill: var(--color1, #fcf7e6)" d="M16 14.115l6.6-6.6 1.885 1.885-6.6 6.6 6.6 6.6-1.885 1.885-6.6-6.6-6.6 6.6-1.885-1.885 6.6-6.6-6.6-6.6 1.885-1.885 6.6 6.6z"></path>
</symbol>
<symbol id="icon-Cart" viewBox="0 0 30 32">
<path d="M4.267 3.2c0-0.589 0.478-1.067 1.067-1.067h2.133c0.521 0 0.966 0.377 1.052 0.891l0.385 2.309h15.63c0.343 0 0.665 0.165 0.865 0.443s0.255 0.636 0.147 0.961l-3.2 9.6c-0.145 0.436-0.553 0.729-1.012 0.729h-11.733c-0.521 0-0.966-0.377-1.052-0.891l-1.985-11.909h-1.23c-0.589 0-1.067-0.478-1.067-1.067zM9.259 7.467l1.244 7.467h10.061l2.489-7.467h-13.794z"></path>
<path d="M8.533 21.333c0-1.178 0.955-2.133 2.133-2.133s2.133 0.955 2.133 2.133-0.955 2.133-2.133 2.133c-1.178 0-2.133-0.955-2.133-2.133z"></path>
<path d="M18.133 21.333c0-1.178 0.955-2.133 2.133-2.133s2.133 0.955 2.133 2.133c0 1.178-0.955 2.133-2.133 2.133s-2.133-0.955-2.133-2.133z"></path>
</symbol>
<symbol id="icon-Logomark" viewBox="0 0 32 32">
<path d="M16 32c-8.822 0-16-7.178-16-16s7.178-16 16-16c8.822 0 16 7.178 16 16s-7.178 16-16 16zM16 2.31c-7.548 0-13.69 6.141-13.69 13.69s6.141 13.69 13.69 13.69c7.548 0 13.69-6.141 13.69-13.69s-6.141-13.69-13.69-13.69z"></path>
<path d="M12.394 10.667l3.191 10.417h0.118l3.191-10.417h3.86l-4.815 14.222h-4.592l-4.815-14.222h3.86z"></path>
</symbol>
<symbol id="icon-Logo" viewBox="0 0 60 32">
<path d="M4.692 0.296l2.41 7.891h0.089l2.41-7.891h2.915l-3.635 10.774h-3.467l-3.635-10.774h2.915z"></path>
<path d="M16.478 11.223c-0.849 0-1.578-0.174-2.189-0.521-0.607-0.351-1.075-0.838-1.405-1.463-0.326-0.628-0.489-1.356-0.489-2.183 0-0.831 0.163-1.559 0.489-2.183 0.33-0.628 0.798-1.115 1.405-1.463 0.61-0.351 1.34-0.526 2.189-0.526s1.577 0.175 2.183 0.526c0.61 0.347 1.079 0.835 1.405 1.463 0.33 0.624 0.495 1.352 0.495 2.183 0 0.828-0.165 1.555-0.495 2.183-0.326 0.624-0.794 1.112-1.405 1.463-0.607 0.347-1.335 0.521-2.183 0.521zM16.494 9.282c0.309 0 0.57-0.095 0.784-0.284s0.377-0.452 0.489-0.789c0.116-0.337 0.174-0.726 0.174-1.168 0-0.449-0.058-0.842-0.174-1.178-0.112-0.337-0.275-0.6-0.489-0.789s-0.475-0.284-0.784-0.284c-0.319 0-0.589 0.095-0.81 0.284-0.217 0.189-0.384 0.452-0.5 0.789-0.112 0.337-0.168 0.729-0.168 1.178 0 0.442 0.056 0.831 0.168 1.168 0.116 0.337 0.282 0.6 0.5 0.789 0.221 0.189 0.491 0.284 0.81 0.284z"></path>
<path d="M25.651 11.223c-0.849 0-1.578-0.174-2.189-0.521-0.607-0.351-1.075-0.838-1.405-1.463-0.326-0.628-0.489-1.356-0.489-2.183 0-0.831 0.163-1.559 0.489-2.183 0.33-0.628 0.798-1.115 1.405-1.463 0.61-0.351 1.34-0.526 2.189-0.526s1.577 0.175 2.183 0.526c0.61 0.347 1.078 0.835 1.405 1.463 0.33 0.624 0.494 1.352 0.494 2.183 0 0.828-0.165 1.555-0.494 2.183-0.326 0.624-0.794 1.112-1.405 1.463-0.607 0.347-1.335 0.521-2.183 0.521zM25.666 9.282c0.309 0 0.57-0.095 0.784-0.284s0.377-0.452 0.489-0.789c0.116-0.337 0.174-0.726 0.174-1.168 0-0.449-0.058-0.842-0.174-1.178-0.112-0.337-0.275-0.6-0.489-0.789s-0.475-0.284-0.784-0.284c-0.319 0-0.589 0.095-0.81 0.284-0.217 0.189-0.384 0.452-0.5 0.789-0.112 0.337-0.168 0.729-0.168 1.178 0 0.442 0.056 0.831 0.168 1.168 0.116 0.337 0.282 0.6 0.5 0.789 0.221 0.189 0.491 0.284 0.81 0.284z"></path>
<path d="M35.033 11.071h-3.983v-10.774h3.977c1.098 0 2.043 0.216 2.836 0.647 0.796 0.428 1.41 1.045 1.841 1.852 0.431 0.803 0.647 1.764 0.647 2.883 0 1.122-0.216 2.087-0.647 2.894-0.428 0.807-1.040 1.426-1.836 1.857-0.796 0.428-1.741 0.642-2.836 0.642zM33.655 8.851h1.279c0.603 0 1.113-0.102 1.531-0.305 0.421-0.207 0.738-0.542 0.952-1.005 0.217-0.466 0.326-1.087 0.326-1.862s-0.109-1.392-0.326-1.852c-0.217-0.463-0.538-0.796-0.963-1-0.421-0.207-0.94-0.31-1.557-0.31h-1.241v6.334z"></path>
<path d="M45.645 11.223c-0.849 0-1.578-0.174-2.188-0.521-0.607-0.351-1.075-0.838-1.405-1.463-0.326-0.628-0.489-1.356-0.489-2.183 0-0.831 0.163-1.559 0.489-2.183 0.33-0.628 0.798-1.115 1.405-1.463 0.61-0.351 1.34-0.526 2.188-0.526s1.577 0.175 2.183 0.526c0.61 0.347 1.079 0.835 1.405 1.463 0.329 0.624 0.495 1.352 0.495 2.183 0 0.828-0.165 1.555-0.495 2.183-0.326 0.624-0.794 1.112-1.405 1.463-0.607 0.347-1.335 0.521-2.183 0.521zM45.661 9.282c0.308 0 0.57-0.095 0.784-0.284s0.377-0.452 0.489-0.789c0.116-0.337 0.174-0.726 0.174-1.168 0-0.449-0.058-0.842-0.174-1.178-0.112-0.337-0.275-0.6-0.489-0.789s-0.475-0.284-0.784-0.284c-0.319 0-0.589 0.095-0.81 0.284-0.217 0.189-0.384 0.452-0.5 0.789-0.112 0.337-0.168 0.729-0.168 1.178 0 0.442 0.056 0.831 0.168 1.168 0.116 0.337 0.282 0.6 0.5 0.789 0.221 0.189 0.491 0.284 0.81 0.284z"></path>
<path d="M54.817 11.223c-0.849 0-1.578-0.174-2.188-0.521-0.607-0.351-1.075-0.838-1.405-1.463-0.326-0.628-0.489-1.356-0.489-2.183 0-0.831 0.163-1.559 0.489-2.183 0.33-0.628 0.798-1.115 1.405-1.463 0.61-0.351 1.34-0.526 2.188-0.526s1.577 0.175 2.183 0.526c0.61 0.347 1.079 0.835 1.405 1.463 0.329 0.624 0.495 1.352 0.495 2.183 0 0.828-0.165 1.555-0.495 2.183-0.326 0.624-0.794 1.112-1.405 1.463-0.607 0.347-1.335 0.521-2.183 0.521zM54.833 9.282c0.308 0 0.57-0.095 0.784-0.284s0.377-0.452 0.489-0.789c0.116-0.337 0.174-0.726 0.174-1.168 0-0.449-0.058-0.842-0.174-1.178-0.112-0.337-0.275-0.6-0.489-0.789s-0.475-0.284-0.784-0.284c-0.319 0-0.589 0.095-0.81 0.284-0.217 0.189-0.384 0.452-0.5 0.789-0.112 0.337-0.168 0.729-0.168 1.178 0 0.442 0.056 0.831 0.168 1.168 0.116 0.337 0.282 0.6 0.5 0.789 0.221 0.189 0.491 0.284 0.81 0.284z"></path>
<path d="M1.894 20.485v-2.115h9.107v2.115h-3.267v8.66h-2.567v-8.66h-3.272z"></path>
<path d="M14.877 29.297c-0.845 0-1.575-0.167-2.189-0.5-0.61-0.337-1.080-0.815-1.41-1.436-0.326-0.624-0.489-1.366-0.489-2.225 0-0.835 0.165-1.564 0.495-2.189 0.33-0.628 0.794-1.115 1.394-1.463 0.6-0.351 1.306-0.526 2.12-0.526 0.575 0 1.101 0.089 1.578 0.268s0.889 0.444 1.236 0.794c0.347 0.351 0.617 0.784 0.81 1.299 0.193 0.512 0.289 1.1 0.289 1.762v0.642h-7.023v-1.494h4.63c-0.003-0.274-0.068-0.517-0.195-0.731s-0.3-0.381-0.521-0.5c-0.217-0.123-0.468-0.184-0.752-0.184-0.288 0-0.545 0.065-0.773 0.195-0.228 0.126-0.409 0.3-0.542 0.521-0.133 0.217-0.203 0.465-0.21 0.742v1.52c0 0.33 0.065 0.619 0.195 0.868 0.13 0.245 0.314 0.437 0.552 0.573s0.523 0.205 0.852 0.205c0.228 0 0.435-0.032 0.621-0.095s0.345-0.156 0.479-0.279c0.133-0.123 0.233-0.274 0.3-0.452l2.362 0.068c-0.098 0.53-0.314 0.991-0.647 1.384-0.33 0.389-0.763 0.693-1.299 0.91-0.537 0.214-1.157 0.321-1.862 0.321z"></path>
<path d="M27.082 23.531l-2.362 0.063c-0.025-0.168-0.091-0.317-0.2-0.447-0.109-0.133-0.251-0.237-0.426-0.31-0.172-0.077-0.372-0.116-0.6-0.116-0.298 0-0.552 0.060-0.763 0.179-0.207 0.119-0.309 0.281-0.305 0.484-0.003 0.158 0.060 0.295 0.189 0.41 0.133 0.116 0.37 0.209 0.71 0.279l1.557 0.295c0.807 0.154 1.406 0.41 1.799 0.768 0.396 0.358 0.596 0.831 0.6 1.42-0.003 0.554-0.168 1.036-0.495 1.447-0.323 0.41-0.765 0.73-1.326 0.957-0.561 0.224-1.203 0.337-1.925 0.337-1.154 0-2.064-0.237-2.73-0.71-0.663-0.477-1.042-1.115-1.136-1.915l2.541-0.063c0.056 0.295 0.202 0.519 0.437 0.673s0.535 0.232 0.9 0.232c0.33 0 0.598-0.061 0.805-0.184s0.312-0.286 0.316-0.489c-0.003-0.182-0.084-0.328-0.242-0.437-0.158-0.112-0.405-0.2-0.742-0.263l-1.41-0.268c-0.81-0.147-1.413-0.419-1.81-0.815-0.396-0.4-0.593-0.908-0.589-1.526-0.003-0.54 0.14-1.001 0.431-1.384 0.291-0.386 0.705-0.68 1.242-0.884s1.17-0.305 1.899-0.305c1.094 0 1.957 0.23 2.588 0.689 0.631 0.456 0.98 1.084 1.047 1.883z"></path>
<path d="M33.109 21.064v1.894h-5.098v-1.894h5.098zM29.079 19.128h2.573v7.476c0 0.158 0.024 0.286 0.073 0.384 0.053 0.095 0.128 0.163 0.226 0.205 0.098 0.039 0.216 0.058 0.352 0.058 0.098 0 0.202-0.009 0.311-0.026 0.112-0.021 0.196-0.039 0.252-0.053l0.389 1.857c-0.123 0.035-0.296 0.079-0.521 0.132-0.221 0.053-0.486 0.086-0.794 0.1-0.603 0.028-1.121-0.042-1.552-0.21-0.428-0.172-0.756-0.438-0.984-0.8-0.224-0.361-0.333-0.815-0.326-1.363v-7.76z"></path>
<path fill="none" stroke="#000" style="stroke: var(--color2, #000)" stroke-linejoin="miter" stroke-linecap="butt" stroke-miterlimit="4" stroke-width="0.5926" d="M4.692 0.296l2.41 7.891h0.089l2.41-7.891h2.915l-3.635 10.774h-3.467l-3.635-10.774h2.915z"></path>
<path fill="none" stroke="#000" style="stroke: var(--color2, #000)" stroke-linejoin="miter" stroke-linecap="butt" stroke-miterlimit="4" stroke-width="0.5926" d="M16.478 11.223c-0.849 0-1.578-0.174-2.189-0.521-0.607-0.351-1.075-0.838-1.405-1.463-0.326-0.628-0.489-1.356-0.489-2.183 0-0.831 0.163-1.559 0.489-2.183 0.33-0.628 0.798-1.115 1.405-1.463 0.61-0.351 1.34-0.526 2.189-0.526s1.577 0.175 2.183 0.526c0.61 0.347 1.079 0.835 1.405 1.463 0.33 0.624 0.495 1.352 0.495 2.183 0 0.828-0.165 1.555-0.495 2.183-0.326 0.624-0.794 1.112-1.405 1.463-0.607 0.347-1.335 0.521-2.183 0.521zM16.494 9.282c0.309 0 0.57-0.095 0.784-0.284s0.377-0.452 0.489-0.789c0.116-0.337 0.174-0.726 0.174-1.168 0-0.449-0.058-0.842-0.174-1.178-0.112-0.337-0.275-0.6-0.489-0.789s-0.475-0.284-0.784-0.284c-0.319 0-0.589 0.095-0.81 0.284-0.217 0.189-0.384 0.452-0.5 0.789-0.112 0.337-0.168 0.729-0.168 1.178 0 0.442 0.056 0.831 0.168 1.168 0.116 0.337 0.282 0.6 0.5 0.789 0.221 0.189 0.491 0.284 0.81 0.284z"></path>
<path fill="none" stroke="#000" style="stroke: var(--color2, #000)" stroke-linejoin="miter" stroke-linecap="butt" stroke-miterlimit="4" stroke-width="0.5926" d="M25.651 11.223c-0.849 0-1.578-0.174-2.189-0.521-0.607-0.351-1.075-0.838-1.405-1.463-0.326-0.628-0.489-1.356-0.489-2.183 0-0.831 0.163-1.559 0.489-2.183 0.33-0.628 0.798-1.115 1.405-1.463 0.61-0.351 1.34-0.526 2.189-0.526s1.577 0.175 2.183 0.526c0.61 0.347 1.078 0.835 1.405 1.463 0.33 0.624 0.494 1.352 0.494 2.183 0 0.828-0.165 1.555-0.494 2.183-0.326 0.624-0.794 1.112-1.405 1.463-0.607 0.347-1.335 0.521-2.183 0.521zM25.666 9.282c0.309 0 0.57-0.095 0.784-0.284s0.377-0.452 0.489-0.789c0.116-0.337 0.174-0.726 0.174-1.168 0-0.449-0.058-0.842-0.174-1.178-0.112-0.337-0.275-0.6-0.489-0.789s-0.475-0.284-0.784-0.284c-0.319 0-0.589 0.095-0.81 0.284-0.217 0.189-0.384 0.452-0.5 0.789-0.112 0.337-0.168 0.729-0.168 1.178 0 0.442 0.056 0.831 0.168 1.168 0.116 0.337 0.282 0.6 0.5 0.789 0.221 0.189 0.491 0.284 0.81 0.284z"></path>
<path fill="none" stroke="#000" style="stroke: var(--color2, #000)" stroke-linejoin="miter" stroke-linecap="butt" stroke-miterlimit="4" stroke-width="0.5926" d="M35.033 11.071h-3.983v-10.774h3.977c1.098 0 2.043 0.216 2.836 0.647 0.796 0.428 1.41 1.045 1.841 1.852 0.431 0.803 0.647 1.764 0.647 2.883 0 1.122-0.216 2.087-0.647 2.894-0.428 0.807-1.040 1.426-1.836 1.857-0.796 0.428-1.741 0.642-2.836 0.642zM33.655 8.851h1.279c0.603 0 1.113-0.102 1.531-0.305 0.421-0.207 0.738-0.542 0.952-1.005 0.217-0.466 0.326-1.087 0.326-1.862s-0.109-1.392-0.326-1.852c-0.217-0.463-0.538-0.796-0.963-1-0.421-0.207-0.94-0.31-1.557-0.31h-1.241v6.334z"></path>
<path fill="none" stroke="#000" style="stroke: var(--color2, #000)" stroke-linejoin="miter" stroke-linecap="butt" stroke-miterlimit="4" stroke-width="0.5926" d="M45.645 11.223c-0.849 0-1.578-0.174-2.188-0.521-0.607-0.351-1.075-0.838-1.405-1.463-0.326-0.628-0.489-1.356-0.489-2.183 0-0.831 0.163-1.559 0.489-2.183 0.33-0.628 0.798-1.115 1.405-1.463 0.61-0.351 1.34-0.526 2.188-0.526s1.577 0.175 2.183 0.526c0.61 0.347 1.079 0.835 1.405 1.463 0.329 0.624 0.495 1.352 0.495 2.183 0 0.828-0.165 1.555-0.495 2.183-0.326 0.624-0.794 1.112-1.405 1.463-0.607 0.347-1.335 0.521-2.183 0.521zM45.661 9.282c0.308 0 0.57-0.095 0.784-0.284s0.377-0.452 0.489-0.789c0.116-0.337 0.174-0.726 0.174-1.168 0-0.449-0.058-0.842-0.174-1.178-0.112-0.337-0.275-0.6-0.489-0.789s-0.475-0.284-0.784-0.284c-0.319 0-0.589 0.095-0.81 0.284-0.217 0.189-0.384 0.452-0.5 0.789-0.112 0.337-0.168 0.729-0.168 1.178 0 0.442 0.056 0.831 0.168 1.168 0.116 0.337 0.282 0.6 0.5 0.789 0.221 0.189 0.491 0.284 0.81 0.284z"></path>
<path fill="none" stroke="#000" style="stroke: var(--color2, #000)" stroke-linejoin="miter" stroke-linecap="butt" stroke-miterlimit="4" stroke-width="0.5926" d="M54.817 11.223c-0.849 0-1.578-0.174-2.188-0.521-0.607-0.351-1.075-0.838-1.405-1.463-0.326-0.628-0.489-1.356-0.489-2.183 0-0.831 0.163-1.559 0.489-2.183 0.33-0.628 0.798-1.115 1.405-1.463 0.61-0.351 1.34-0.526 2.188-0.526s1.577 0.175 2.183 0.526c0.61 0.347 1.079 0.835 1.405 1.463 0.329 0.624 0.495 1.352 0.495 2.183 0 0.828-0.165 1.555-0.495 2.183-0.326 0.624-0.794 1.112-1.405 1.463-0.607 0.347-1.335 0.521-2.183 0.521zM54.833 9.282c0.308 0 0.57-0.095 0.784-0.284s0.377-0.452 0.489-0.789c0.116-0.337 0.174-0.726 0.174-1.168 0-0.449-0.058-0.842-0.174-1.178-0.112-0.337-0.275-0.6-0.489-0.789s-0.475-0.284-0.784-0.284c-0.319 0-0.589 0.095-0.81 0.284-0.217 0.189-0.384 0.452-0.5 0.789-0.112 0.337-0.168 0.729-0.168 1.178 0 0.442 0.056 0.831 0.168 1.168 0.116 0.337 0.282 0.6 0.5 0.789 0.221 0.189 0.491 0.284 0.81 0.284z"></path>
<path fill="none" stroke="#000" style="stroke: var(--color2, #000)" stroke-linejoin="miter" stroke-linecap="butt" stroke-miterlimit="4" stroke-width="0.5926" d="M1.894 20.485v-2.115h9.107v2.115h-3.267v8.66h-2.567v-8.66h-3.272z"></path>
<path fill="none" stroke="#000" style="stroke: var(--color2, #000)" stroke-linejoin="miter" stroke-linecap="butt" stroke-miterlimit="4" stroke-width="0.5926" d="M14.877 29.297c-0.845 0-1.575-0.167-2.189-0.5-0.61-0.337-1.080-0.815-1.41-1.436-0.326-0.624-0.489-1.366-0.489-2.225 0-0.835 0.165-1.564 0.495-2.189 0.33-0.628 0.794-1.115 1.394-1.463 0.6-0.351 1.306-0.526 2.12-0.526 0.575 0 1.101 0.089 1.578 0.268s0.889 0.444 1.236 0.794c0.347 0.351 0.617 0.784 0.81 1.299 0.193 0.512 0.289 1.1 0.289 1.762v0.642h-7.023v-1.494h4.63c-0.003-0.274-0.068-0.517-0.195-0.731s-0.3-0.381-0.521-0.5c-0.217-0.123-0.468-0.184-0.752-0.184-0.288 0-0.545 0.065-0.773 0.195-0.228 0.126-0.409 0.3-0.542 0.521-0.133 0.217-0.203 0.465-0.21 0.742v1.52c0 0.33 0.065 0.619 0.195 0.868 0.13 0.245 0.314 0.437 0.552 0.573s0.523 0.205 0.852 0.205c0.228 0 0.435-0.032 0.621-0.095s0.345-0.156 0.479-0.279c0.133-0.123 0.233-0.274 0.3-0.452l2.362 0.068c-0.098 0.53-0.314 0.991-0.647 1.384-0.33 0.389-0.763 0.693-1.299 0.91-0.537 0.214-1.157 0.321-1.862 0.321z"></path>
<path fill="none" stroke="#000" style="stroke: var(--color2, #000)" stroke-linejoin="miter" stroke-linecap="butt" stroke-miterlimit="4" stroke-width="0.5926" d="M27.082 23.531l-2.362 0.063c-0.025-0.168-0.091-0.317-0.2-0.447-0.109-0.133-0.251-0.237-0.426-0.31-0.172-0.077-0.372-0.116-0.6-0.116-0.298 0-0.552 0.060-0.763 0.179-0.207 0.119-0.309 0.281-0.305 0.484-0.003 0.158 0.060 0.295 0.189 0.41 0.133 0.116 0.37 0.209 0.71 0.279l1.557 0.295c0.807 0.154 1.406 0.41 1.799 0.768 0.396 0.358 0.596 0.831 0.6 1.42-0.003 0.554-0.168 1.036-0.495 1.447-0.323 0.41-0.765 0.73-1.326 0.957-0.561 0.224-1.203 0.337-1.925 0.337-1.154 0-2.064-0.237-2.73-0.71-0.663-0.477-1.042-1.115-1.136-1.915l2.541-0.063c0.056 0.295 0.202 0.519 0.437 0.673s0.535 0.232 0.9 0.232c0.33 0 0.598-0.061 0.805-0.184s0.312-0.286 0.316-0.489c-0.003-0.182-0.084-0.328-0.242-0.437-0.158-0.112-0.405-0.2-0.742-0.263l-1.41-0.268c-0.81-0.147-1.413-0.419-1.81-0.815-0.396-0.4-0.593-0.908-0.589-1.526-0.003-0.54 0.14-1.001 0.431-1.384 0.291-0.386 0.705-0.68 1.242-0.884s1.17-0.305 1.899-0.305c1.094 0 1.957 0.23 2.588 0.689 0.631 0.456 0.98 1.084 1.047 1.883z"></path>
<path fill="none" stroke="#000" style="stroke: var(--color2, #000)" stroke-linejoin="miter" stroke-linecap="butt" stroke-miterlimit="4" stroke-width="0.5926" d="M33.109 21.064v1.894h-5.098v-1.894h5.098zM29.079 19.128h2.573v7.476c0 0.158 0.024 0.286 0.073 0.384 0.053 0.095 0.128 0.163 0.226 0.205 0.098 0.039 0.216 0.058 0.352 0.058 0.098 0 0.202-0.009 0.311-0.026 0.112-0.021 0.196-0.039 0.252-0.053l0.389 1.857c-0.123 0.035-0.296 0.079-0.521 0.132-0.221 0.053-0.486 0.086-0.794 0.1-0.603 0.028-1.121-0.042-1.552-0.21-0.428-0.172-0.756-0.438-0.984-0.8-0.224-0.361-0.333-0.815-0.326-1.363v-7.76z"></path>
</symbol>
</defs>
</svg>
